<svg xmlns="http://www.w3.org/2000/svg" width="97.688" height="27.062" viewBox="0 0 97.688 27.062">
  <defs>
    <style>
      .cls-1 {
        fill: #0cb9f2;
      }

      .cls-1, .cls-2 {
        fill-rule: evenodd;
      }

      .cls-2 {
        fill: #0cb9f2;
      }
    </style>
  </defs>
  <path class="cls-1" d="M11.639,24.6L6.921,21.595a1.9,1.9,0,0,1-.684-2.872A2.022,2.022,0,0,1,8.9,18.245l6.564,4.1,3.966-2.53L7.4,12.159S4.964,11.072,6.169,9.082A2.006,2.006,0,0,1,8.9,8.467l13.88,8.82s4.562-3.347-1.162-7.658c0,0-8.891-5.977-13.4-8.2,0,0-5.142-3.237-7.043,2.256,0,0-1.212,9.744-.41,17.3a21.563,21.563,0,0,0,.615,4.034s1.7,4.443,6.906,1.5C8.289,26.518,11.354,24.826,11.639,24.6Z" transform="translate(-0.531 -0.469)"/>
  <path class="cls-2" d="M58.392,7.523l0.079,8.548s-0.538,6.336,6.411,6.253c0,0,5.822.343,6.015-6.411V7.523H67.811v8.469s0.169,3.394-3.087,3.4c0,0-3.015.243-3.166-3.245V7.523H58.392Z" transform="translate(-0.531 -0.469)"/>
  <path class="cls-2" d="M38.13,22.086V7.523h3.4l3.72,6.174,3.8-6.174h3.4V22.086H49.369V12.509l-4.116,6.253-4.037-6.095v9.419H38.13Z" transform="translate(-0.531 -0.469)"/>
  <path class="cls-2" d="M75.647,7.523l5.778,14.643h2.691L89.973,7.523h-3.4l-3.72,10.289L79.05,7.523h-3.4Z" transform="translate(-0.531 -0.469)"/>
  <path class="cls-2" d="M95.038,7.523V22.086H98.2V7.523H95.038Z" transform="translate(-0.531 -0.469)"/>
</svg>
